<?xml version="1.0" encoding="UTF-8" standalone="no"?>
<!-- Created with Inkscape (http://www.inkscape.org/) -->

<svg
   xmlns:dc="http://purl.org/dc/elements/1.1/"
   xmlns:cc="http://creativecommons.org/ns#"
   xmlns:rdf="http://www.w3.org/1999/02/22-rdf-syntax-ns#"
   xmlns:svg="http://www.w3.org/2000/svg"
   xmlns="http://www.w3.org/2000/svg"
   version="1.1"
   width="956.69287"
   height="730.62988"
   id="svg2"
   xml:space="preserve"><metadata
     id="metadata8"><rdf:RDF><cc:Work
         rdf:about=""><dc:format>image/svg+xml</dc:format><dc:type
           rdf:resource="http://purl.org/dc/dcmitype/StillImage" /><dc:title></dc:title></cc:Work></rdf:RDF></metadata><defs
     id="defs6"><clipPath
       id="clipPath16"><path
         d="m 43.56,-7.9698 551.085,0 0,782.308 -551.085,0 0,-782.308 z"
         id="path18" /></clipPath><clipPath
       id="clipPath22"><path
         d="m 44.763,773.284 549.199,0 0,-783.897 -549.199,0 0,29.612 -0.062,0 0.062,754.285"
         id="path24" /></clipPath><clipPath
       id="clipPath28"><path
         d="m 43.579,774.331 542.358,0 0,-774.301 -542.358,0 0,774.301 z"
         id="path30" /></clipPath><clipPath
       id="clipPath42"><path
         d="m 26.063,792 559.874,0 0,-791.97 -559.874,0 0,791.97 z"
         id="path44" /></clipPath><clipPath
       id="clipPath54"><path
         d="m 217.944,799.947 376.019,0 0,-26.662 -376.019,0"
         id="path56" /></clipPath><clipPath
       id="clipPath60"><path
         d="m 26.063,792 559.874,0 0,-791.97 -559.874,0 0,791.97 z"
         id="path62" /></clipPath><clipPath
       id="clipPath104"><path
         d="m 26.063,792 559.874,0 0,-791.97 -559.874,0 0,791.97 z"
         id="path106" /></clipPath><clipPath
       id="clipPath116"><path
         d="m 217.944,799.947 376.019,0 0,-26.662 -376.019,0"
         id="path118" /></clipPath><clipPath
       id="clipPath122"><path
         d="m 26.063,792 559.874,0 0,-791.97 -559.874,0 0,791.97 z"
         id="path124" /></clipPath></defs><g
     transform="matrix(1.25,0,0,-1.25,0,730.63062)"
     id="g10"><g
       transform="matrix(13.486986,0,0,13.486986,-814.07577,-9142.3757)"
       id="g3187"><g
         id="g3180"><path
           d="m 113.61295,719.10307 -6.866,0 c -0.768,0 -1.391,-0.654 -1.391,-1.465 0,-0.81 0.623,-1.467 1.391,-1.467 l 1.673,-0.007 0.001,10e-4 5.192,-10e-4 c 0.769,0 1.393,0.657 1.393,1.468 0,0.812 -0.624,1.471 -1.393,1.471"
           id="path96"
           style="fill:#7ab46e;fill-opacity:1;fill-rule:nonzero;stroke:none" /><path
           d="m 68.341945,709.31507 c -0.81,0 -1.468,0.657 -1.468,1.468 0,0.811 0.658,1.468 1.468,1.468 l 12.883,0 c 0.714,0 1.114,0.345 1.256,0.838 0.092,0.318 0.607,1.141 1.648,1.141 l 20.229005,0 c 0,0 0.078,0.009 0.116,-0.028 0.034,-0.037 0.042,-0.091 0.042,-0.091 l 0,-2.799 c 0,0 -0.018,-0.081 -0.061,-0.106 -0.068,-0.039 -0.134,-0.029 -0.134,-0.029 l -5.494005,0.009 c -0.665,0 -1.242,-0.511 -1.242,-1.175 l 0,-18.606 c 0,0 0,-0.954 -0.781,-1.475 0,0 -5.778,-3.723 -6.124,-3.958 -0.286,-0.197 -0.948,-0.467 -1.535,-0.04 -0.417,0.303 -0.467,1.015 -0.467,1.015 l 0,22.769 c 0,1.118 -0.669,1.466 -1.481,1.466 l -2.699,0.001 c -0.819,0.007 -1.113,-0.308 -1.253,-0.801 -0.092,-0.318 -0.517,-1.061 -1.612,-1.061 l -0.798,0 c -0.533,0 -0.961,-0.434 -0.961,-0.965 l 0,-18.392 c 0,0 0.029,-1.531 -0.81,-2.761 -0.675,-0.99 -2.224,-1.887 -2.224,-1.887 l -6.435,-4.278 c 0,0 -2.612,-1.808 -5.548,-0.723 -2.212,0.818 -2.572,2.291 -2.33,3.618 0.242,1.324 1.806,2.102 2.774,2.048 1.195,-0.066 2.157,-0.478 2.731,-1.888 0.477,-1.169 0.847,-1.567 1.448,-1.608 0.603,-0.041 1.164,0.764 1.164,2.251 0,1.487 0,23.631 0,23.631 0,0.52 -0.421,0.943 -0.942,0.943 l -1.36,0.005"
           id="path98"
           style="fill:#7ab46e;fill-opacity:1;fill-rule:nonzero;stroke:none" /><path
           d="m 113.61295,719.10307 -6.866,0 c -0.768,0 -1.391,-0.654 -1.391,-1.465 0,-0.81 0.623,-1.467 1.391,-1.467 l 1.673,-0.007 0.001,10e-4 5.192,-10e-4 c 0.769,0 1.393,0.657 1.393,1.468 0,0.812 -0.624,1.471 -1.393,1.471"
           id="path154"
           style="fill:#00b185;fill-opacity:1;fill-rule:nonzero;stroke:none" /><path
           d="m 68.341945,709.31507 c -0.81,0 -1.468,0.657 -1.468,1.468 0,0.811 0.658,1.468 1.468,1.468 l 12.883,0 c 0.714,0 1.114,0.345 1.256,0.838 0.092,0.318 0.607,1.141 1.648,1.141 l 20.229005,0 c 0,0 0.078,0.009 0.116,-0.028 0.034,-0.037 0.042,-0.091 0.042,-0.091 l 0,-2.799 c 0,0 -0.018,-0.081 -0.061,-0.106 -0.068,-0.039 -0.134,-0.029 -0.134,-0.029 l -5.494005,0.009 c -0.665,0 -1.242,-0.511 -1.242,-1.175 l 0,-18.606 c 0,0 0,-0.954 -0.781,-1.475 0,0 -5.778,-3.723 -6.124,-3.958 -0.286,-0.197 -0.948,-0.467 -1.535,-0.04 -0.417,0.303 -0.467,1.015 -0.467,1.015 l 0,22.769 c 0,1.118 -0.669,1.466 -1.481,1.466 l -2.699,0.001 c -0.819,0.007 -1.113,-0.308 -1.253,-0.801 -0.092,-0.318 -0.517,-1.061 -1.612,-1.061 l -0.798,0 c -0.533,0 -0.961,-0.434 -0.961,-0.965 l 0,-18.392 c 0,0 0.029,-1.531 -0.81,-2.761 -0.675,-0.99 -2.224,-1.887 -2.224,-1.887 l -6.435,-4.278 c 0,0 -2.612,-1.808 -5.548,-0.723 -2.212,0.818 -2.572,2.291 -2.33,3.618 0.242,1.324 1.806,2.102 2.774,2.048 1.195,-0.066 2.157,-0.478 2.731,-1.888 0.477,-1.169 0.847,-1.567 1.448,-1.608 0.603,-0.041 1.164,0.764 1.164,2.251 0,1.487 0,23.631 0,23.631 0,0.52 -0.421,0.943 -0.942,0.943 l -1.36,0.005"
           id="path156"
           style="fill:#00b185;fill-opacity:1;fill-rule:nonzero;stroke:none" /><path
           d="m 114.64595,714.22207 0,-17.606 c 0,0 -0.003,-0.955 -0.784,-1.474 0,0 -5.779,-3.725 -6.123,-3.959 -0.286,-0.197 -0.949,-0.468 -1.534,-0.041 -0.419,0.304 -0.466,1.016 -0.466,1.016 l 0,22.064 8.907,0"
           id="path158"
           style="fill:#00b185;fill-opacity:1;fill-rule:nonzero;stroke:none" /></g></g></g></svg>